# xmcd
#
# Track frame offsets: 
#        150
#        21075
#        39525
#        61938
#        84985
#        106157
#        123557
#        139795
#        154279
#        172778
#        194978
#        219434
#        238732
#        253977
#        268293
#
# Disc length: 3873 seconds
#
# Revision: 0
# Processed by: cddbd v1.5.2PL0 Copyright (c) Steve Scherf et al.
# Submitted via: ExactAudioCopyFreeDBPlugin 1.0
#
DISCID=db0f1f0f
DTITLE=Та Сторона - Моя Вселенная
DYEAR=2013
DGENRE=Rap
TTITLE0=Не Бывает Так
TTITLE1=Другой Рай
TTITLE2=Одна Планета
TTITLE3=Островаа (feat. Алина Астровская) 
TTITLE4=Капилляры
TTITLE5=Как Узнать, Что Ты Спишь
TTITLE6=Пластилин
TTITLE7=Земля (У Меня Есть Ты)
TTITLE8=Только Не Я
TTITLE9=Скотч
TTITLE10=Поломанные
TTITLE11=Не Вздумай
TTITLE12=Пообещай
TTITLE13=Гудки
TTITLE14=Моя Вселенная
EXTD=
EXTT0=
EXTT1=
EXTT2=
EXTT3=
EXTT4=
EXTT5=
EXTT6=
EXTT7=
EXTT8=
EXTT9=
EXTT10=
EXTT11=
EXTT12=
EXTT13=
EXTT14=
PLAYORDER=
